<svg width="118" height="43" viewBox="0 0 118 43" fill="none" xmlns="http://www.w3.org/2000/svg">
<path d="M1.91642 0.872952C2.061 0.191915 2.23386 -4.84365e-06 2.9481 0H50.3256C50.7224 0.0793593 50.8018 0.317437 50.7224 0.872952L48.8178 9.04696C48.6155 9.77003 48.421 10.0786 47.9448 10.0786H30.6445C30.1683 10.0786 30.089 10.3167 29.9303 10.8722L22.8673 40.7907C22.6292 41.8223 22.3911 42.2191 21.5182 42.2191H12.0744C11.2808 42.2191 11.2015 41.9017 11.4395 40.7907L18.4232 10.8722C18.5819 10.2373 18.5025 10.0786 18.1057 10.0786H0.805394C0.0117994 10.0786 -0.123206 9.85243 0.09116 9.04696L1.91642 0.872952Z" fill="white"/>
<path d="M56.0395 12.2213L64.6896 12.0626C65.4832 12.0626 65.5626 12.5388 65.3245 13.7292L64.1341 19.1256C63.8906 20.1026 63.7373 20.6334 62.5469 20.6334H53.5C49.3733 20.6334 47.9345 22.3396 46.6751 27.4583L43.5801 40.7907C43.342 41.6636 43.2626 42.2191 42.6277 42.2191H33.8982C33.1046 42.2191 32.9459 41.6636 33.184 40.7907L36.3584 27.4583C38.5804 16.5067 44.2943 12.2213 56.0395 12.2213Z" fill="white"/>
<path d="M70.1654 13.7292C70.4829 12.4594 70.6416 12.2213 71.7526 12.2213H79.7679C80.244 12.2213 80.244 12.4594 79.9266 13.7292L73.8159 40.7907C73.5779 41.8223 73.3398 42.2191 72.6256 42.2191H64.6896C64.0548 42.2191 63.9754 41.8223 64.2135 40.7907L70.1654 13.7292Z" fill="white"/>
<path d="M81.1964 31.9818C81.6725 19.3637 89.6085 11.9039 99.7664 12.0626L116.67 11.9039C117.702 11.9039 118.178 11.9833 117.94 13.1736L116.67 19.1256C116.432 20.1573 116.273 20.6334 115.4 20.6334H99.5284C93.7351 20.6334 91.5924 25.3156 91.5924 29.601C91.6641 32.4484 92.9415 33.8071 96.7508 33.8071L113.258 33.6483L111.75 41.1081C111.512 42.0604 110.877 42.3779 110.321 42.3779H93.2451C84.9263 42.3779 81.1964 38.4893 81.1964 31.9818Z" fill="white"/>
<path d="M73.1018 0.872952C73.2587 0.18272 73.6574 0 74.4509 0H81.752C82.4662 0 82.7837 0.238078 82.625 0.872952L81.1965 7.22169C80.9392 8.26629 80.641 8.65016 79.768 8.65016H72.467C71.6734 8.65016 71.5171 8.17717 71.7527 7.22169L73.1018 0.872952Z" fill="#00FFAB"/>
</svg>
