<svg width="13" height="13" viewBox="0 0 13 13" fill="none" xmlns="http://www.w3.org/2000/svg">
    <path
        d="M12.8065 11.871L10.4032 9.46774C12.2419 7.17742 12.0645 3.79032 9.96774 1.70968C8.87097 0.612903 7.40323 0 5.83871 0C4.27419 0 2.82258 0.612903 1.70968 1.70968C0.612903 2.80645 0 4.27419 0 5.83871C0 7.40323 0.612903 8.85484 1.70968 9.96774C2.80645 11.0645 4.27419 11.6774 5.83871 11.6774C7.16129 11.6774 8.45161 11.2258 9.48387 10.4032L11.8871 12.8065C12.0161 12.9355 12.1774 13 12.3387 13C12.5161 13 12.6774 12.9355 12.7903 12.8065C13.0484 12.5323 13.0484 12.129 12.8065 11.871ZM10.3871 5.82258C10.3871 7.03226 9.91935 8.17742 9.06452 9.03226C8.20968 9.8871 7.06452 10.3548 5.85484 10.3548C4.64516 10.3548 3.5 9.8871 2.64516 9.03226C1.79032 8.17742 1.32258 7.03226 1.32258 5.82258C1.32258 4.6129 1.79032 3.46774 2.64516 2.6129C3.5 1.75806 4.64516 1.29032 5.85484 1.29032C7.06452 1.29032 8.20968 1.75806 9.06452 2.6129C9.91935 3.46774 10.3871 4.6129 10.3871 5.82258Z"
        fill="#3A3A3A" />
</svg>